<svg width="34" height="33" viewBox="0 0 34 33" fill="none" xmlns="http://www.w3.org/2000/svg">
<path d="M6.375 28.875C5.80833 28.875 5.3125 28.6687 4.8875 28.2562C4.4625 27.8437 4.25 27.3625 4.25 26.8125V6.1875C4.25 5.6375 4.4625 5.15625 4.8875 4.74375C5.3125 4.33125 5.80833 4.125 6.375 4.125H27.625C28.1917 4.125 28.6875 4.33125 29.1125 4.74375C29.5375 5.15625 29.75 5.6375 29.75 6.1875V26.8125C29.75 27.3625 29.5375 27.8437 29.1125 28.2562C28.6875 28.6687 28.1917 28.875 27.625 28.875H6.375ZM6.375 26.8125H27.625V6.1875H6.375V26.8125ZM8.35833 23.4781H25.6771L20.4708 16.7406L15.7958 22.6188L12.5021 18.2531L8.35833 23.4781ZM6.375 26.8125V6.1875V26.8125Z" fill="black"/>
</svg>
