<svg width="34" height="33" viewBox="0 0 34 33" fill="none" xmlns="http://www.w3.org/2000/svg">
<path d="M28.1917 28.8406L18.8771 19.8C18.1687 20.3958 17.3424 20.8599 16.3979 21.1922C15.4535 21.5245 14.45 21.6906 13.3875 21.6906C10.8375 21.6906 8.67708 20.8313 6.90625 19.1125C5.13542 17.3938 4.25 15.3198 4.25 12.8906C4.25 10.4615 5.13542 8.38751 6.90625 6.66876C8.67708 4.95001 10.8257 4.09064 13.3521 4.09064C15.8549 4.09064 17.9858 4.95001 19.7448 6.66876C21.5038 8.38751 22.3833 10.4615 22.3833 12.8906C22.3833 13.8761 22.2181 14.8271 21.8875 15.7438C21.5569 16.6604 21.0611 17.5198 20.4 18.3219L29.75 27.3281L28.1917 28.8406ZM13.3521 19.6281C15.2646 19.6281 16.8937 18.9693 18.2396 17.6516C19.5854 16.3339 20.2583 14.7469 20.2583 12.8906C20.2583 11.0344 19.5854 9.44741 18.2396 8.1297C16.8937 6.81199 15.2646 6.15314 13.3521 6.15314C11.416 6.15314 9.7691 6.81199 8.41146 8.1297C7.05382 9.44741 6.375 11.0344 6.375 12.8906C6.375 14.7469 7.05382 16.3339 8.41146 17.6516C9.7691 18.9693 11.416 19.6281 13.3521 19.6281Z" fill="black"/>
</svg>
